<svg xmlns="http://www.w3.org/2000/svg" width="934.97668" height="571.13586" viewBox="0 0 934.97668 571.13586" xmlns:xlink="http://www.w3.org/1999/xlink"><path d="m733.51782,89.20634s-20.58081,2.32364-21.90863,34.19074c-1.10651,26.55592-3.3656,41.3553,7.43811,46.89548,3.86157,1.98022,8.40356,2.15404,12.52618.79865l44.10181-14.49924s.66388-47.80065-14.60577-59.41886-27.55176-7.96678-27.55176-7.96678l.00006.00002Z" fill="#36344e"/><polygon points="757.82843 162.45946 735.50952 169.79718 735.50952 137.67088 755.75842 137.67088 757.82843 162.45946" fill="#faafb2"/><path id="uuid-4eda5a58-6320-4b96-8c61-04382cd36dce-127" d="m689.60229,344.84042c-1.20966,7.36066-6.11896,12.63855-10.96472,11.78848-4.8457-.85007-7.79211-7.50543-6.58099-14.86856.44202-2.94855,1.60791-5.73615,3.40009-8.12946l5.53265-31.11603,15.0542,3.14951-7.05249,30.34052c.92725,2.87094,1.13684,5.90067.61133,8.83554,0,0,0,.00003,0,0h-.00006Z" fill="#faafb2"/><polygon points="740.70184 551.76587 719.7962 551.76587 707.67316 440.06943 739.98529 440.06943 740.70184 551.76587" fill="#faafb2"/><path d="m699.43842,569.72021c-2.19897,0-4.15503-.05469-5.62915-.18994-5.55493-.50977-10.85181-4.60742-13.51489-7.00488-1.19434-1.07471-1.57861-2.79248-.9563-4.27344h0c.44629-1.06299,1.33789-1.85449,2.44653-2.17139l14.67236-4.19189,23.7583-16.0293.26514.4751c.09888.17773,2.43188,4.37988,3.21338,7.22119.29712,1.08105.21899,1.98096-.23242,2.67578-.31323.48242-.74658.7627-1.10059.92236.43115.45166,1.77832,1.3623,5.92798,2.0249,6.06567.96094,7.33423-5.31592,7.38525-5.5835l.04004-.21094.18042-.11621c2.88477-1.85791,4.65747-2.70361,5.27222-2.52246.38257.11475,1.02271.30518,2.7417,17.41113.17407.53516,1.38086,4.47314.55981,8.23633-.8938,4.09668-18.78027,2.68652-22.35767,2.36279-.10156.0127-13.49487.96387-22.67212.96436Z" fill="#36344e"/><polygon points="787.92859 551.76587 767.02295 551.76587 754.8999 440.06943 787.21204 440.06943 787.92859 551.76587" fill="#faafb2"/><path d="m746.66504,569.72021c-2.19897,0-4.15503-.05469-5.62915-.18994-5.55469-.50977-10.85156-4.60742-13.51465-7.00488-1.19434-1.07471-1.57861-2.79248-.95654-4.27344v-.00049c.44653-1.0625,1.33838-1.854,2.44678-2.1709l14.67236-4.19189,23.7583-16.0293.26514.4751c.09888.17773,2.43188,4.37988,3.21338,7.22119.29712,1.08105.21899,1.98096-.23242,2.67578-.31323.48242-.74658.7627-1.10059.92236.43115.45166,1.77832,1.3623,5.92798,2.0249,6.06567.96094,7.33423-5.31592,7.38525-5.5835l.04004-.21094.18042-.11621c2.88525-1.8584,4.66187-2.7002,5.27197-2.52246.38257.11475,1.02295.30518,2.7417,17.41113.17407.53516,1.3811,4.47314.55981,8.23633-.89331,4.09619-18.78076,2.68652-22.35767,2.36279-.10156.0127-13.49487.96436-22.67212.96436Z" fill="#36344e"/><polygon points="793.94177 277.42139 692.36542 277.42139 728.87982 157.25587 769.37756 157.25587 793.94177 277.42139" fill="#dfdfe0"/><path d="m735.26978,157.27432s-25.22815-.66389-27.88373,5.97508-33.85876,164.64668-33.85876,164.64668h20.58081l41.16168-170.62177Z" fill="#dfdfe0"/><circle cx="738.27252" cy="124.32365" r="22.24059" fill="#faafb2"/><path d="m732.19,97.50506s-12.24017,49.69672,1.36969,72.93314l-19.17004-4.07149s-7.4278-54.39445,7.50995-64.28365l10.29041-4.578Z" fill="#36344e"/><path d="m772.83264,277.42139h-66.65723l-36.47437,149.68613c-.66974,6.32288,3.33893,12.22101,9.48083,13.8656,20.01306,5.35883,68.02502,12.95007,140.70081-8.19641,6.99371-2.03497,10.96277-9.4122,8.76764-16.3573l-55.81763-138.99802h-.00006Z" fill="#36344e"/><g><path d="m745.88153,157.25587l20.73364-.91254c8.97803.67776,17.09747,5.56477,21.91064,13.17384,14.64679,23.15511,42.06415,71.97128,17.5863,78.65854-32.25647,8.81235-47.88593-40.23747-47.88593-40.23747l-12.34467-50.68239v.00002Z" fill="#dfdfe0"/><path id="uuid-c6b4a34a-6b5e-4c42-b21b-879ce560fe33-128" d="m738.7655,171.79797c-4.25983-6.12343-4.41449-13.32993-.34583-16.09573,4.06866-2.76582,10.81879-.04359,15.07928,6.08261,1.73694,2.42332,2.84241,5.2354,3.22394,8.20093l17.70709,26.17781-12.99438,8.22763-16.07648-26.68021c-2.66522-1.41377-4.92621-3.44136-6.59369-5.91302,0,0,0-.00002,0,0l.00006-.00002Z" fill="#faafb2"/><polygon points="749.24762 192.97392 763.87946 179.506 792.81049 206.44183 765.90533 224.83493 749.24762 192.97392" fill="#dfdfe0"/></g><rect y="126.62691" width="524.08466" height="64.81624" rx="32.40808" ry="32.40808" fill="#f50057"/><g><path d="m268.87512,290.40237c-16.23291,0-29.43945-13.20654-29.43945-29.43945s13.20654-29.43945,29.43945-29.43945,29.43945,13.20654,29.43945,29.43945-13.20654,29.43945-29.43945,29.43945Zm0-50.87891c-11.82178,0-21.43945,9.61768-21.43945,21.43945s9.61768,21.43945,21.43945,21.43945,21.43945-9.61768,21.43945-21.43945-9.61768-21.43945-21.43945-21.43945Z" fill="#484662"/><path d="m324.40759,314.51175c-.92139,0-1.84741-.31641-2.60181-.96338l-37.21313-31.90967c-1.677-1.43799-1.87085-3.96338-.43286-5.64062,1.43823-1.67627,3.96338-1.87061,5.64038-.43262l37.21313,31.90967c1.677,1.43799,1.87085,3.96338.43286,5.64062-.79126.92236-1.91162,1.396-3.03857,1.396Z" fill="#484662"/></g><path d="m203.30666,569.94586c0,.66003.53003,1.19,1.19006,1.19h729.28996c.65997,0,1.19-.52997,1.19-1.19,0-.65997-.53003-1.19-1.19-1.19H204.49672c-.66003,0-1.19006.53003-1.19006,1.19Z" fill="#484565"/><rect x="420.49792" y="93.95271" width="103.58673" height="8.23012" rx="4.11505" ry="4.11505" fill="#dfdfe0"/><rect y="0" width="103.58675" height="8.23012" rx="4.11505" ry="4.11505" fill="#dfdfe0"/><rect y="35.91443" width="288.10822" height="8.23012" rx="4.11505" ry="4.11505" fill="#dfdfe0"/></svg>